<svg width="178" height="32" viewBox="0 0 178 32" fill="none" xmlns="http://www.w3.org/2000/svg">
<g clip-path="url(#clip0_2349_153613)">
<path d="M15.1498 31.7322C6.73515 31.3614 0 24.388 0 15.8661C0 7.34421 6.73515 0.370815 15.1498 0V31.7322Z" fill="#2520EF"/>
<path d="M16.5586 15.1622V0C24.7436 0.360515 31.3348 6.96309 31.6947 15.1622H16.5586Z" fill="#2520EF"/>
<path d="M16.5723 31.7491C16.9322 23.55 23.5234 16.9474 31.7084 16.5869V31.7491H16.5723Z" fill="#2520EF"/>
<path d="M49.3466 31.9999C42.7143 31.9999 39.2422 26.393 39.2422 20.8514C39.2422 14.4823 43.5129 9.85742 49.398 9.85742C51.1632 9.85742 53.6585 10.369 55.5265 12.8033L56.1401 13.6033V10.4239H60.4725V31.3338H56.1401V28.4943L55.5368 29.1948C53.5454 31.5124 51.0707 31.9999 49.3432 31.9999H49.3466ZM50.0116 13.6823C46.3407 13.6823 43.6775 16.7381 43.6775 20.951C43.6775 25.133 46.3407 28.1682 50.0116 28.1682C54.4331 28.1682 56.4485 24.4531 56.4485 21.0025C56.4485 15.945 53.2163 13.6823 50.0116 13.6823Z" fill="black"/>
<path d="M73.3467 31.9999C72.1711 31.9999 70.4299 31.8626 68.8943 30.6849C67.8078 29.8677 66.8721 28.5767 66.3477 27.1828L69.8335 25.5244C70.1043 26.187 70.5224 26.9664 70.9714 27.3647C71.2319 27.6291 72.0237 28.2712 73.4016 28.2712C74.3099 28.2712 75.1873 27.9587 75.6912 27.454C76.195 26.9493 76.5069 26.1973 76.5069 25.5175C76.5069 24.8137 76.267 24.2197 75.7529 23.6463C75.0571 22.9493 74.2516 22.5647 73.4838 22.2283L71.6501 21.3596C70.7212 20.9201 69.5627 20.3707 68.7744 19.581C67.7804 18.63 67.3382 17.5828 67.3382 16.1819C67.3382 14.527 67.9552 12.9304 69.0349 11.8008C70.2619 10.5098 71.9517 9.854 74.0631 9.854C75.6055 9.854 76.7434 10.1733 77.8677 10.9252C78.4881 11.3235 79.345 12.0343 80.0579 13.1982L76.8737 15.2961C76.3356 14.551 75.321 13.5793 73.7066 13.5793C72.7366 13.5793 72.1745 13.9948 71.9277 14.2454C71.5747 14.5956 71.3656 15.1107 71.3656 15.6154C71.3656 16.254 71.6432 16.7381 72.2362 17.133C72.4213 17.2566 72.5995 17.3458 72.8977 17.4901C73.1411 17.6068 73.4701 17.7682 73.9568 18.0257L76.5241 19.3098C77.6757 19.8866 78.6903 20.4291 79.4478 21.2394C80.4692 22.2626 80.9422 23.4574 80.9422 25.0059C80.9422 26.7913 80.3184 28.4119 79.1393 29.6995C77.7032 31.2686 75.8626 31.9999 73.3467 31.9999Z" fill="black"/>
<path d="M99.2522 31.3305L92.0509 21.9228L90.7519 23.2207V31.3305H86.416V0.635254H90.7519V18.1563L98.2548 10.4207H103.921L95.0363 19.025L104.726 31.3305H99.2522Z" fill="black"/>
<path d="M122.809 31.3305V18.9014C122.809 17.5898 122.809 16.0996 121.747 14.9254C121.024 14.1357 119.906 13.6825 118.676 13.6825C116.729 13.6825 115.348 14.6885 114.707 15.6292C113.946 16.7142 113.623 18.4001 113.623 21.2601V31.3305H109.291V0.635254H113.623V12.7692L114.21 12.1649C115.725 10.6129 117.538 9.85757 119.752 9.85757C123.33 9.85757 125.092 11.5983 125.822 12.6353C127.142 14.5683 127.142 17.1846 127.142 18.4413V31.334H122.809V31.3305Z" fill="black"/>
<path d="M141.792 31.9998C140.27 31.9998 137.395 31.6668 135.225 29.435C133.388 27.5947 133.018 25.4522 133.018 22.5955V10.4204H137.35V22.441C137.35 23.8693 137.425 25.3629 138.344 26.5509C139.119 27.5672 140.445 28.1715 141.892 28.1715C143.338 28.1715 144.664 27.5638 145.442 26.5474C146.358 25.3595 146.433 23.8659 146.433 22.441V10.4204H150.765V22.5955C150.765 25.4522 150.395 27.5947 148.562 29.4316C146.33 31.6633 143.362 31.9998 141.789 31.9998H141.792Z" fill="black"/>
<path d="M167.895 32.0001C166.167 32.0001 163.693 31.5125 161.701 29.1949L161.098 28.4945V31.334H156.766V0.635254H161.098V13.6001L161.712 12.8001C163.58 10.3657 166.075 9.85414 167.84 9.85414C173.725 9.85414 177.996 14.479 177.996 20.8481C177.996 26.3863 174.524 31.9966 167.891 31.9966L167.895 32.0001ZM167.227 13.6825C164.022 13.6825 160.79 15.9451 160.79 21.0026C160.79 24.4533 162.805 28.1683 167.227 28.1683C170.897 28.1683 173.561 25.1331 173.561 20.9511C173.561 16.7383 170.897 13.6825 167.227 13.6825Z" fill="black"/>
</g>
<defs>
<clipPath id="clip0_2349_153613">
<rect width="178" height="32" fill="white"/>
</clipPath>
</defs>
</svg>
